<svg xmlns="http://www.w3.org/2000/svg" version="1.1" xmlns:xlink="http://www.w3.org/1999/xlink" width="512" height="512" x="0" y="0" viewBox="0 0 6.35 6.35" style="enable-background:new 0 0 512 512" xml:space="preserve" class=""><g><path fill-rule="evenodd" d="M3.181.264A2.92 2.92 0 0 0 .264 3.18a2.922 2.922 0 0 0 2.917 2.917 2.92 2.92 0 0 0 2.915-2.917A2.919 2.919 0 0 0 3.18.264zm-.004 1.323a.265.265 0 0 1 .268.268v2.01l.608-.607a.265.265 0 1 1 .374.375l-1.06 1.06a.265.265 0 0 1-.374 0l-1.06-1.06a.265.265 0 0 1 .183-.456.265.265 0 0 1 .192.08l.606.606V1.855a.265.265 0 0 1 .263-.268z" paint-order="stroke fill markers" fill="#d84315" opacity="1" data-original="#000000" class=""></path></g></svg>