<svg xmlns="http://www.w3.org/2000/svg" version="1.1" xmlns:xlink="http://www.w3.org/1999/xlink" width="512" height="512" x="0" y="0" viewBox="0 0 512 512" style="enable-background:new 0 0 512 512" xml:space="preserve" class=""><g><path d="M139.636 372.364h232.727v46.545H139.636zM139.636 465.455V512h232.728v-46.545z" fill="#d84315" opacity="1" data-original="#000000" class=""></path><path d="M507.338 133.843 413.823 9.3a23.274 23.274 0 0 0-18.61-9.3h-38.364v193.94c0 12.851-10.42 23.273-23.273 23.273H116.364c-12.853 0-23.273-10.422-23.273-23.273V0H23.273C10.42 0 0 10.422 0 23.273v465.455C0 501.578 10.42 512 23.273 512h69.818V349.09c0-12.854 10.42-23.273 23.273-23.273h279.273c12.853 0 23.273 10.418 23.273 23.273V512h69.818C501.58 512 512 501.578 512 488.727v-340.91a23.28 23.28 0 0 0-4.662-13.974z" fill="#d84315" opacity="1" data-original="#000000" class=""></path><path d="M139.636 0v170.667h170.667V0z" fill="#d84315" opacity="1" data-original="#000000" class=""></path></g></svg>