<svg xmlns="http://www.w3.org/2000/svg" viewBox="0 0 1440 320"><path fill="#26a69a" fill-opacity="1" d="M0,224L17.1,197.3C34.3,171,69,117,103,106.7C137.1,96,171,128,206,165.3C240,203,274,245,309,250.7C342.9,256,377,224,411,197.3C445.7,171,480,149,514,165.3C548.6,181,583,235,617,240C651.4,245,686,203,720,197.3C754.3,192,789,224,823,250.7C857.1,277,891,299,926,266.7C960,235,994,149,1029,144C1062.9,139,1097,213,1131,240C1165.7,267,1200,245,1234,202.7C1268.6,160,1303,96,1337,96C1371.4,96,1406,160,1423,192L1440,224L1440,0L1422.9,0C1405.7,0,1371,0,1337,0C1302.9,0,1269,0,1234,0C1200,0,1166,0,1131,0C1097.1,0,1063,0,1029,0C994.3,0,960,0,926,0C891.4,0,857,0,823,0C788.6,0,754,0,720,0C685.7,0,651,0,617,0C582.9,0,549,0,514,0C480,0,446,0,411,0C377.1,0,343,0,309,0C274.3,0,240,0,206,0C171.4,0,137,0,103,0C68.6,0,34,0,17,0L0,0Z"></path></svg>