<svg xmlns="http://www.w3.org/2000/svg" version="1.1" xmlns:xlink="http://www.w3.org/1999/xlink" width="30" height="30" x="0" y="0" viewBox="0 0 32 32" style="enable-background:new 0 0 512 512" xml:space="preserve" class=""><g><path d="M22 8.459H11.91l1.504-1.504a2 2 0 1 0-2.829-2.828L5.667 9.045a2 2 0 0 0 0 2.828l4.919 4.919c.39.391.902.586 1.414.586s1.024-.195 1.414-.586a2 2 0 0 0 0-2.828l-1.505-1.505H22c3.309 0 6 2.691 6 6s-2.691 6-6 6H2a2 2 0 0 0 0 4h20c5.514 0 10-4.486 10-10s-4.486-10-10-10z" fill="#d84315" opacity="1" data-original="#000000" class=""></path></g></svg>